<mxfile host="app.diagrams.net" agent="Mozilla/5.0 (Windows NT 10.0; Win64; x64) AppleWebKit/537.36 (KHTML, like Gecko) Chrome/140.0.0.0 Safari/537.36" version="28.2.1">
  <diagram name="Página-1" id="XBgrHMJazeNIZMmhb862">
    <mxGraphModel grid="1" page="1" gridSize="10" guides="1" tooltips="1" connect="1" arrows="1" fold="1" pageScale="1" pageWidth="827" pageHeight="1169" math="0" shadow="0">
      <root>
        <mxCell id="0" />
        <mxCell id="1" parent="0" />
        <mxCell id="vZ1dOxl-l5OCE9bv6NuZ-1" value="Atividades Complementares" style="swimlane;html=1;childLayout=stackLayout;resizeParent=1;resizeParentMax=0;horizontal=0;startSize=20;horizontalStack=0;whiteSpace=wrap;" vertex="1" parent="1">
          <mxGeometry x="20" y="-10" width="4000" height="1500" as="geometry" />
        </mxCell>
        <mxCell id="vZ1dOxl-l5OCE9bv6NuZ-2" value="Estudante" style="swimlane;html=1;startSize=20;horizontal=0;" vertex="1" parent="vZ1dOxl-l5OCE9bv6NuZ-1">
          <mxGeometry x="20" width="3980" height="500" as="geometry" />
        </mxCell>
        <mxCell id="vZ1dOxl-l5OCE9bv6NuZ-8" style="edgeStyle=orthogonalEdgeStyle;rounded=0;orthogonalLoop=1;jettySize=auto;html=1;" edge="1" parent="vZ1dOxl-l5OCE9bv6NuZ-2" source="vZ1dOxl-l5OCE9bv6NuZ-5" target="vZ1dOxl-l5OCE9bv6NuZ-7">
          <mxGeometry relative="1" as="geometry" />
        </mxCell>
        <mxCell id="vZ1dOxl-l5OCE9bv6NuZ-5" value="" style="points=[[0.145,0.145,0],[0.5,0,0],[0.855,0.145,0],[1,0.5,0],[0.855,0.855,0],[0.5,1,0],[0.145,0.855,0],[0,0.5,0]];shape=mxgraph.bpmn.event;html=1;verticalLabelPosition=bottom;labelBackgroundColor=#ffffff;verticalAlign=top;align=center;perimeter=ellipsePerimeter;outlineConnect=0;aspect=fixed;outline=standard;symbol=general;" vertex="1" parent="vZ1dOxl-l5OCE9bv6NuZ-2">
          <mxGeometry x="75" y="30" width="40" height="40" as="geometry" />
        </mxCell>
        <mxCell id="vZ1dOxl-l5OCE9bv6NuZ-7" value="Realiza a Atividade&lt;div&gt;Complementar&lt;/div&gt;" style="points=[[0.25,0,0],[0.5,0,0],[0.75,0,0],[1,0.25,0],[1,0.5,0],[1,0.75,0],[0.75,1,0],[0.5,1,0],[0.25,1,0],[0,0.75,0],[0,0.5,0],[0,0.25,0]];shape=mxgraph.bpmn.task2;whiteSpace=wrap;rectStyle=rounded;size=10;html=1;container=1;expand=0;collapsible=0;taskMarker=manual;" vertex="1" parent="vZ1dOxl-l5OCE9bv6NuZ-2">
          <mxGeometry x="40" y="135" width="110" height="70" as="geometry" />
        </mxCell>
        <mxCell id="f10lREREaZ9edsUjd209-52" style="edgeStyle=orthogonalEdgeStyle;rounded=0;orthogonalLoop=1;jettySize=auto;html=1;" edge="1" parent="vZ1dOxl-l5OCE9bv6NuZ-2" source="vZ1dOxl-l5OCE9bv6NuZ-7" target="f10lREREaZ9edsUjd209-53">
          <mxGeometry relative="1" as="geometry">
            <mxPoint x="250" y="180" as="targetPoint" />
          </mxGeometry>
        </mxCell>
        <mxCell id="f10lREREaZ9edsUjd209-55" style="edgeStyle=orthogonalEdgeStyle;rounded=0;orthogonalLoop=1;jettySize=auto;html=1;" edge="1" parent="vZ1dOxl-l5OCE9bv6NuZ-2" source="f10lREREaZ9edsUjd209-53" target="f10lREREaZ9edsUjd209-54">
          <mxGeometry relative="1" as="geometry">
            <Array as="points">
              <mxPoint x="255" y="310" />
            </Array>
          </mxGeometry>
        </mxCell>
        <mxCell id="f10lREREaZ9edsUjd209-59" value="Atividade não consta&lt;div&gt;na Tabela&lt;/div&gt;" style="edgeLabel;html=1;align=center;verticalAlign=middle;resizable=0;points=[];" vertex="1" connectable="0" parent="f10lREREaZ9edsUjd209-55">
          <mxGeometry x="-0.1694" y="-2" relative="1" as="geometry">
            <mxPoint x="2" y="18" as="offset" />
          </mxGeometry>
        </mxCell>
        <mxCell id="f10lREREaZ9edsUjd209-53" value="&lt;span style=&quot;&quot;&gt;Verifica Tabela do&lt;br&gt;Projeto Pedagógico&lt;/span&gt;" style="points=[[0.25,0.25,0],[0.5,0,0],[0.75,0.25,0],[1,0.5,0],[0.75,0.75,0],[0.5,1,0],[0.25,0.75,0],[0,0.5,0]];shape=mxgraph.bpmn.gateway2;html=1;verticalLabelPosition=bottom;labelBackgroundColor=light-dark(#ffffff, #000000);verticalAlign=top;align=center;perimeter=rhombusPerimeter;outlineConnect=0;outline=none;symbol=none;" vertex="1" parent="vZ1dOxl-l5OCE9bv6NuZ-2">
          <mxGeometry x="230" y="145" width="50" height="50" as="geometry" />
        </mxCell>
        <mxCell id="f10lREREaZ9edsUjd209-81" style="edgeStyle=orthogonalEdgeStyle;rounded=0;orthogonalLoop=1;jettySize=auto;html=1;dashed=1;dashPattern=1 4;" edge="1" parent="vZ1dOxl-l5OCE9bv6NuZ-2" source="f10lREREaZ9edsUjd209-62" target="f10lREREaZ9edsUjd209-79">
          <mxGeometry relative="1" as="geometry" />
        </mxCell>
        <mxCell id="f10lREREaZ9edsUjd209-62" value="Anexa na Ficha da Atividade Complementar" style="points=[[0.25,0,0],[0.5,0,0],[0.75,0,0],[1,0.25,0],[1,0.5,0],[1,0.75,0],[0.75,1,0],[0.5,1,0],[0.25,1,0],[0,0.75,0],[0,0.5,0],[0,0.25,0]];shape=mxgraph.bpmn.task2;whiteSpace=wrap;rectStyle=rounded;size=10;html=1;container=1;expand=0;collapsible=0;taskMarker=abstract;" vertex="1" parent="vZ1dOxl-l5OCE9bv6NuZ-2">
          <mxGeometry x="1455" y="295" width="110" height="70" as="geometry" />
        </mxCell>
        <mxCell id="f10lREREaZ9edsUjd209-54" value="" style="points=[[0.145,0.145,0],[0.5,0,0],[0.855,0.145,0],[1,0.5,0],[0.855,0.855,0],[0.5,1,0],[0.145,0.855,0],[0,0.5,0]];shape=mxgraph.bpmn.event;html=1;verticalLabelPosition=bottom;labelBackgroundColor=#ffffff;verticalAlign=top;align=center;perimeter=ellipsePerimeter;outlineConnect=0;aspect=fixed;outline=end;symbol=terminate2;" vertex="1" parent="vZ1dOxl-l5OCE9bv6NuZ-2">
          <mxGeometry x="374" y="290" width="40" height="40" as="geometry" />
        </mxCell>
        <mxCell id="f10lREREaZ9edsUjd209-57" style="edgeStyle=orthogonalEdgeStyle;rounded=0;orthogonalLoop=1;jettySize=auto;html=1;entryX=0;entryY=0.5;entryDx=0;entryDy=0;entryPerimeter=0;" edge="1" parent="vZ1dOxl-l5OCE9bv6NuZ-2" target="f10lREREaZ9edsUjd209-72">
          <mxGeometry relative="1" as="geometry">
            <mxPoint x="270" y="169.99999999999977" as="sourcePoint" />
            <mxPoint x="510" y="80" as="targetPoint" />
          </mxGeometry>
        </mxCell>
        <mxCell id="f10lREREaZ9edsUjd209-58" value="Atividade consta&lt;div&gt;na Tabela&lt;/div&gt;" style="edgeLabel;html=1;align=center;verticalAlign=middle;resizable=0;points=[];" vertex="1" connectable="0" parent="f10lREREaZ9edsUjd209-57">
          <mxGeometry x="-0.2458" y="-3" relative="1" as="geometry">
            <mxPoint x="1" y="-46" as="offset" />
          </mxGeometry>
        </mxCell>
        <mxCell id="f10lREREaZ9edsUjd209-67" value="" style="group" connectable="0" vertex="1" parent="vZ1dOxl-l5OCE9bv6NuZ-2">
          <mxGeometry x="590" y="180" width="790" height="300" as="geometry" />
        </mxCell>
        <mxCell id="4DLabzlXX5gW2ZpASCws-1" style="edgeStyle=orthogonalEdgeStyle;rounded=0;orthogonalLoop=1;jettySize=auto;html=1;" edge="1" parent="f10lREREaZ9edsUjd209-67" source="vZ1dOxl-l5OCE9bv6NuZ-49">
          <mxGeometry relative="1" as="geometry">
            <Array as="points">
              <mxPoint x="197.50000000000006" y="266.12903225806446" />
            </Array>
            <mxPoint x="482.81191358024716" y="266.16666666666674" as="targetPoint" />
          </mxGeometry>
        </mxCell>
        <mxCell id="4DLabzlXX5gW2ZpASCws-4" value="Não" style="edgeLabel;html=1;align=center;verticalAlign=middle;resizable=0;points=[];" connectable="0" vertex="1" parent="4DLabzlXX5gW2ZpASCws-1">
          <mxGeometry x="0.1636" relative="1" as="geometry">
            <mxPoint x="-75" as="offset" />
          </mxGeometry>
        </mxCell>
        <mxCell id="4DLabzlXX5gW2ZpASCws-2" style="edgeStyle=orthogonalEdgeStyle;rounded=0;orthogonalLoop=1;jettySize=auto;html=1;" edge="1" parent="f10lREREaZ9edsUjd209-67" source="vZ1dOxl-l5OCE9bv6NuZ-49" target="vZ1dOxl-l5OCE9bv6NuZ-16">
          <mxGeometry relative="1" as="geometry">
            <Array as="points">
              <mxPoint x="197.50000000000006" y="33.870967741935495" />
            </Array>
          </mxGeometry>
        </mxCell>
        <mxCell id="4DLabzlXX5gW2ZpASCws-3" value="Sim" style="edgeLabel;html=1;align=center;verticalAlign=middle;resizable=0;points=[];" connectable="0" vertex="1" parent="4DLabzlXX5gW2ZpASCws-2">
          <mxGeometry x="-0.2923" y="-1" relative="1" as="geometry">
            <mxPoint x="-1" y="26" as="offset" />
          </mxGeometry>
        </mxCell>
        <mxCell id="4DLabzlXX5gW2ZpASCws-5" style="edgeStyle=orthogonalEdgeStyle;rounded=0;orthogonalLoop=1;jettySize=auto;html=1;" edge="1" parent="f10lREREaZ9edsUjd209-67" target="f10lREREaZ9edsUjd209-41">
          <mxGeometry relative="1" as="geometry">
            <mxPoint x="526.6252160493827" y="266.0833333333335" as="sourcePoint" />
          </mxGeometry>
        </mxCell>
        <mxCell id="4DLabzlXX5gW2ZpASCws-6" value="Não&lt;div&gt;&lt;br&gt;&lt;/div&gt;" style="edgeLabel;html=1;align=center;verticalAlign=middle;resizable=0;points=[];" connectable="0" vertex="1" parent="4DLabzlXX5gW2ZpASCws-5">
          <mxGeometry relative="1" as="geometry">
            <mxPoint y="5" as="offset" />
          </mxGeometry>
        </mxCell>
        <mxCell id="f10lREREaZ9edsUjd209-41" value="Transforma o arquivo em PDF" style="points=[[0.25,0,0],[0.5,0,0],[0.75,0,0],[1,0.25,0],[1,0.5,0],[1,0.75,0],[0.75,1,0],[0.5,1,0],[0.25,1,0],[0,0.75,0],[0,0.5,0],[0,0.25,0]];shape=mxgraph.bpmn.task2;whiteSpace=wrap;rectStyle=rounded;size=10;html=1;container=1;expand=0;collapsible=0;taskMarker=abstract;" vertex="1" parent="f10lREREaZ9edsUjd209-67">
          <mxGeometry x="623.2222222222223" y="232.25806451612902" width="96.55555555555557" height="67.74193548387099" as="geometry" />
        </mxCell>
        <mxCell id="vZ1dOxl-l5OCE9bv6NuZ-47" value="" style="edgeStyle=orthogonalEdgeStyle;rounded=0;orthogonalLoop=1;jettySize=auto;html=1;" edge="1" parent="f10lREREaZ9edsUjd209-67" source="vZ1dOxl-l5OCE9bv6NuZ-9">
          <mxGeometry relative="1" as="geometry">
            <mxPoint x="193.11111111111114" y="145.1612903225805" as="targetPoint" />
          </mxGeometry>
        </mxCell>
        <mxCell id="vZ1dOxl-l5OCE9bv6NuZ-49" value="É mais de 1 arquivo?" style="points=[[0.25,0.25,0],[0.5,0,0],[0.75,0.25,0],[1,0.5,0],[0.75,0.75,0],[0.5,1,0],[0.25,0.75,0],[0,0.5,0]];shape=mxgraph.bpmn.gateway2;html=1;verticalLabelPosition=bottom;labelBackgroundColor=#ffffff;verticalAlign=top;align=center;perimeter=rhombusPerimeter;outlineConnect=0;outline=none;symbol=none;" vertex="1" parent="f10lREREaZ9edsUjd209-67">
          <mxGeometry x="175.55555555555557" y="120.9677419354839" width="43.88888888888889" height="48.38709677419356" as="geometry" />
        </mxCell>
        <mxCell id="f10lREREaZ9edsUjd209-43" style="edgeStyle=orthogonalEdgeStyle;rounded=0;orthogonalLoop=1;jettySize=auto;html=1;entryX=0.5;entryY=1;entryDx=0;entryDy=0;entryPerimeter=0;dashed=1;dashPattern=1 4;" edge="1" parent="f10lREREaZ9edsUjd209-67" source="f10lREREaZ9edsUjd209-41" target="vZ1dOxl-l5OCE9bv6NuZ-18">
          <mxGeometry relative="1" as="geometry">
            <Array as="points">
              <mxPoint x="754.8888888888891" y="270.96774193548396" />
            </Array>
          </mxGeometry>
        </mxCell>
        <mxCell id="4DLabzlXX5gW2ZpASCws-10" style="edgeStyle=orthogonalEdgeStyle;rounded=0;orthogonalLoop=1;jettySize=auto;html=1;" edge="1" parent="f10lREREaZ9edsUjd209-67" source="vZ1dOxl-l5OCE9bv6NuZ-16" target="vZ1dOxl-l5OCE9bv6NuZ-29">
          <mxGeometry relative="1" as="geometry">
            <Array as="points">
              <mxPoint x="285.27777777777777" y="111.29032258064517" />
            </Array>
          </mxGeometry>
        </mxCell>
        <mxCell id="4DLabzlXX5gW2ZpASCws-11" value="Não" style="edgeLabel;html=1;align=center;verticalAlign=middle;resizable=0;points=[];" connectable="0" vertex="1" parent="4DLabzlXX5gW2ZpASCws-10">
          <mxGeometry x="0.025" y="-3" relative="1" as="geometry">
            <mxPoint y="-3" as="offset" />
          </mxGeometry>
        </mxCell>
        <mxCell id="f10lREREaZ9edsUjd209-64" style="edgeStyle=orthogonalEdgeStyle;rounded=0;orthogonalLoop=1;jettySize=auto;html=1;" edge="1" parent="f10lREREaZ9edsUjd209-67" source="vZ1dOxl-l5OCE9bv6NuZ-16" target="f10lREREaZ9edsUjd209-7">
          <mxGeometry relative="1" as="geometry" />
        </mxCell>
        <mxCell id="vZ1dOxl-l5OCE9bv6NuZ-16" value="&lt;span style=&quot;background-color: light-dark(rgb(255, 255, 255), rgb(0, 0, 0));&quot;&gt;Arquivos em PDF?&lt;/span&gt;" style="points=[[0.25,0.25,0],[0.5,0,0],[0.75,0.25,0],[1,0.5,0],[0.75,0.75,0],[0.5,1,0],[0.25,0.75,0],[0,0.5,0]];shape=mxgraph.bpmn.gateway2;html=1;verticalLabelPosition=bottom;labelBackgroundColor=#ffffff;verticalAlign=top;align=center;perimeter=rhombusPerimeter;outlineConnect=0;outline=none;symbol=none;" vertex="1" parent="f10lREREaZ9edsUjd209-67">
          <mxGeometry x="263.33333333333337" y="9.677419354838714" width="43.88888888888889" height="48.38709677419356" as="geometry" />
        </mxCell>
        <mxCell id="vZ1dOxl-l5OCE9bv6NuZ-9" value="Obtêm os arquivos&amp;nbsp;&lt;div&gt;de Declaração de&lt;/div&gt;&lt;div&gt;Presença&lt;/div&gt;" style="points=[[0.25,0,0],[0.5,0,0],[0.75,0,0],[1,0.25,0],[1,0.5,0],[1,0.75,0],[0.75,1,0],[0.5,1,0],[0.25,1,0],[0,0.75,0],[0,0.5,0],[0,0.25,0]];shape=mxgraph.bpmn.task2;whiteSpace=wrap;rectStyle=rounded;size=10;html=1;container=1;expand=0;collapsible=0;taskMarker=abstract;" vertex="1" parent="f10lREREaZ9edsUjd209-67">
          <mxGeometry y="111.29032258064517" width="96.55555555555557" height="67.74193548387099" as="geometry" />
        </mxCell>
        <mxCell id="4DLabzlXX5gW2ZpASCws-7" style="edgeStyle=orthogonalEdgeStyle;rounded=0;orthogonalLoop=1;jettySize=auto;html=1;" edge="1" parent="f10lREREaZ9edsUjd209-67" source="vZ1dOxl-l5OCE9bv6NuZ-29" target="f10lREREaZ9edsUjd209-7">
          <mxGeometry relative="1" as="geometry" />
        </mxCell>
        <mxCell id="vZ1dOxl-l5OCE9bv6NuZ-29" value="Transforma os arquivos em PDF" style="points=[[0.25,0,0],[0.5,0,0],[0.75,0,0],[1,0.25,0],[1,0.5,0],[1,0.75,0],[0.75,1,0],[0.5,1,0],[0.25,1,0],[0,0.75,0],[0,0.5,0],[0,0.25,0]];shape=mxgraph.bpmn.task2;whiteSpace=wrap;rectStyle=rounded;size=10;html=1;container=1;expand=0;collapsible=0;taskMarker=abstract;" vertex="1" parent="f10lREREaZ9edsUjd209-67">
          <mxGeometry x="386.2222222222223" y="77.41935483870971" width="96.55555555555557" height="67.74193548387099" as="geometry" />
        </mxCell>
        <mxCell id="vZ1dOxl-l5OCE9bv6NuZ-44" value="" style="group;glass=1;" connectable="0" vertex="1" parent="f10lREREaZ9edsUjd209-67">
          <mxGeometry x="719.7777777777779" y="125.80645161290323" width="70.22222222222224" height="53.22580645161292" as="geometry" />
        </mxCell>
        <mxCell id="vZ1dOxl-l5OCE9bv6NuZ-18" value="&lt;font style=&quot;font-size: 11px;&quot;&gt;Declaração de presença&lt;/font&gt;" style="shape=mxgraph.bpmn.data2;labelPosition=center;verticalLabelPosition=bottom;align=center;verticalAlign=top;size=15;html=1;" vertex="1" parent="vZ1dOxl-l5OCE9bv6NuZ-44">
          <mxGeometry x="17.55555555555556" width="35.11111111111112" height="48.38709677419356" as="geometry" />
        </mxCell>
        <mxCell id="vZ1dOxl-l5OCE9bv6NuZ-23" value="PDF" style="text;html=1;strokeColor=none;fillColor=none;align=center;verticalAlign=middle;whiteSpace=wrap;rounded=0;" vertex="1" parent="vZ1dOxl-l5OCE9bv6NuZ-44">
          <mxGeometry x="26.33333333333333" y="21.77419354838709" width="17.55555555555556" height="9.677419354838714" as="geometry" />
        </mxCell>
        <mxCell id="f10lREREaZ9edsUjd209-7" value="Une os arquivos" style="points=[[0.25,0,0],[0.5,0,0],[0.75,0,0],[1,0.25,0],[1,0.5,0],[1,0.75,0],[0.75,1,0],[0.5,1,0],[0.25,1,0],[0,0.75,0],[0,0.5,0],[0,0.25,0]];shape=mxgraph.bpmn.task2;whiteSpace=wrap;rectStyle=rounded;size=10;html=1;container=1;expand=0;collapsible=0;taskMarker=abstract;" vertex="1" parent="f10lREREaZ9edsUjd209-67">
          <mxGeometry x="553" width="96.55555555555557" height="67.74193548387099" as="geometry" />
        </mxCell>
        <mxCell id="f10lREREaZ9edsUjd209-10" style="edgeStyle=orthogonalEdgeStyle;rounded=0;orthogonalLoop=1;jettySize=auto;html=1;entryX=0.5;entryY=0;entryDx=0;entryDy=0;entryPerimeter=0;dashed=1;dashPattern=1 4;" edge="1" parent="f10lREREaZ9edsUjd209-67" source="f10lREREaZ9edsUjd209-7" target="vZ1dOxl-l5OCE9bv6NuZ-18">
          <mxGeometry relative="1" as="geometry" />
        </mxCell>
        <mxCell id="f10lREREaZ9edsUjd209-65" style="edgeStyle=orthogonalEdgeStyle;rounded=0;orthogonalLoop=1;jettySize=auto;html=1;entryX=0;entryY=0.5;entryDx=0;entryDy=0;entryPerimeter=0;dashed=1;dashPattern=1 4;" edge="1" parent="f10lREREaZ9edsUjd209-67" target="vZ1dOxl-l5OCE9bv6NuZ-18">
          <mxGeometry relative="1" as="geometry">
            <mxPoint x="504.75000000000045" y="241.96610861576164" as="sourcePoint" />
            <Array as="points">
              <mxPoint x="504.7222222222223" y="150" />
            </Array>
          </mxGeometry>
        </mxCell>
        <mxCell id="f10lREREaZ9edsUjd209-69" style="edgeStyle=orthogonalEdgeStyle;rounded=0;orthogonalLoop=1;jettySize=auto;html=1;" edge="1" parent="vZ1dOxl-l5OCE9bv6NuZ-2" source="f10lREREaZ9edsUjd209-68" target="vZ1dOxl-l5OCE9bv6NuZ-9">
          <mxGeometry relative="1" as="geometry" />
        </mxCell>
        <mxCell id="f10lREREaZ9edsUjd209-68" value="" style="points=[[0.145,0.145,0],[0.5,0,0],[0.855,0.145,0],[1,0.5,0],[0.855,0.855,0],[0.5,1,0],[0.145,0.855,0],[0,0.5,0]];shape=mxgraph.bpmn.event;html=1;verticalLabelPosition=bottom;labelBackgroundColor=#ffffff;verticalAlign=top;align=center;perimeter=ellipsePerimeter;outlineConnect=0;aspect=fixed;outline=standard;symbol=timer;" vertex="1" parent="vZ1dOxl-l5OCE9bv6NuZ-2">
          <mxGeometry x="490" y="305.16" width="40" height="40" as="geometry" />
        </mxCell>
        <mxCell id="f10lREREaZ9edsUjd209-76" style="edgeStyle=orthogonalEdgeStyle;rounded=0;orthogonalLoop=1;jettySize=auto;html=1;" edge="1" parent="vZ1dOxl-l5OCE9bv6NuZ-2" source="f10lREREaZ9edsUjd209-72" target="f10lREREaZ9edsUjd209-73">
          <mxGeometry relative="1" as="geometry" />
        </mxCell>
        <mxCell id="f10lREREaZ9edsUjd209-72" value="Verificar o limite de carga horária da respectiva Atividade" style="points=[[0.25,0,0],[0.5,0,0],[0.75,0,0],[1,0.25,0],[1,0.5,0],[1,0.75,0],[0.75,1,0],[0.5,1,0],[0.25,1,0],[0,0.75,0],[0,0.5,0],[0,0.25,0]];shape=mxgraph.bpmn.task2;whiteSpace=wrap;rectStyle=rounded;size=10;html=1;container=1;expand=0;collapsible=0;taskMarker=abstract;" vertex="1" parent="vZ1dOxl-l5OCE9bv6NuZ-2">
          <mxGeometry x="530" y="50" width="96.55555555555557" height="67.74193548387099" as="geometry" />
        </mxCell>
        <mxCell id="f10lREREaZ9edsUjd209-77" style="edgeStyle=orthogonalEdgeStyle;rounded=0;orthogonalLoop=1;jettySize=auto;html=1;" edge="1" parent="vZ1dOxl-l5OCE9bv6NuZ-2" source="f10lREREaZ9edsUjd209-73" target="f10lREREaZ9edsUjd209-74">
          <mxGeometry relative="1" as="geometry" />
        </mxCell>
        <mxCell id="f10lREREaZ9edsUjd209-73" value="Busco os dados para o preenchimento da Ficha" style="points=[[0.25,0,0],[0.5,0,0],[0.75,0,0],[1,0.25,0],[1,0.5,0],[1,0.75,0],[0.75,1,0],[0.5,1,0],[0.25,1,0],[0,0.75,0],[0,0.5,0],[0,0.25,0]];shape=mxgraph.bpmn.task2;whiteSpace=wrap;rectStyle=rounded;size=10;html=1;container=1;expand=0;collapsible=0;taskMarker=abstract;" vertex="1" parent="vZ1dOxl-l5OCE9bv6NuZ-2">
          <mxGeometry x="850" y="50" width="96.55555555555557" height="67.74193548387099" as="geometry" />
        </mxCell>
        <mxCell id="f10lREREaZ9edsUjd209-80" style="edgeStyle=orthogonalEdgeStyle;rounded=0;orthogonalLoop=1;jettySize=auto;html=1;dashed=1;dashPattern=1 4;" edge="1" parent="vZ1dOxl-l5OCE9bv6NuZ-2" source="f10lREREaZ9edsUjd209-74" target="f10lREREaZ9edsUjd209-79">
          <mxGeometry relative="1" as="geometry" />
        </mxCell>
        <mxCell id="f10lREREaZ9edsUjd209-74" value="Preenche os campos da Ficha da Atividade Complementar" style="points=[[0.25,0,0],[0.5,0,0],[0.75,0,0],[1,0.25,0],[1,0.5,0],[1,0.75,0],[0.75,1,0],[0.5,1,0],[0.25,1,0],[0,0.75,0],[0,0.5,0],[0,0.25,0]];shape=mxgraph.bpmn.task2;whiteSpace=wrap;rectStyle=rounded;size=10;html=1;container=1;expand=0;collapsible=0;taskMarker=abstract;" vertex="1" parent="vZ1dOxl-l5OCE9bv6NuZ-2">
          <mxGeometry x="1172.22" y="50" width="96.55555555555557" height="67.74193548387099" as="geometry" />
        </mxCell>
        <mxCell id="f10lREREaZ9edsUjd209-78" style="edgeStyle=orthogonalEdgeStyle;rounded=0;orthogonalLoop=1;jettySize=auto;html=1;" edge="1" parent="vZ1dOxl-l5OCE9bv6NuZ-2" source="vZ1dOxl-l5OCE9bv6NuZ-18" target="f10lREREaZ9edsUjd209-62">
          <mxGeometry relative="1" as="geometry" />
        </mxCell>
        <mxCell id="f10lREREaZ9edsUjd209-79" value="Ficha da&amp;nbsp;&lt;div&gt;Atividade Complementar&lt;/div&gt;" style="shape=mxgraph.bpmn.data2;labelPosition=center;verticalLabelPosition=bottom;align=center;verticalAlign=top;size=15;html=1;" vertex="1" parent="vZ1dOxl-l5OCE9bv6NuZ-2">
          <mxGeometry x="1490" y="53.870000000000005" width="40" height="60" as="geometry" />
        </mxCell>
        <mxCell id="f10lREREaZ9edsUjd209-127" value="" style="group" connectable="0" vertex="1" parent="vZ1dOxl-l5OCE9bv6NuZ-2">
          <mxGeometry x="2330" y="120" width="260" height="80" as="geometry" />
        </mxCell>
        <mxCell id="f10lREREaZ9edsUjd209-126" style="edgeStyle=orthogonalEdgeStyle;rounded=0;orthogonalLoop=1;jettySize=auto;html=1;" edge="1" parent="f10lREREaZ9edsUjd209-127" source="f10lREREaZ9edsUjd209-101" target="f10lREREaZ9edsUjd209-125">
          <mxGeometry relative="1" as="geometry" />
        </mxCell>
        <mxCell id="f10lREREaZ9edsUjd209-101" value="Recebe o indeferimento e a razão do indeferimento" style="points=[[0.25,0,0],[0.5,0,0],[0.75,0,0],[1,0.25,0],[1,0.5,0],[1,0.75,0],[0.75,1,0],[0.5,1,0],[0.25,1,0],[0,0.75,0],[0,0.5,0],[0,0.25,0]];shape=mxgraph.bpmn.task2;whiteSpace=wrap;rectStyle=rounded;size=10;html=1;container=1;expand=0;collapsible=0;taskMarker=abstract;" vertex="1" parent="f10lREREaZ9edsUjd209-127">
          <mxGeometry width="120" height="80" as="geometry" />
        </mxCell>
        <mxCell id="f10lREREaZ9edsUjd209-125" value="" style="points=[[0.145,0.145,0],[0.5,0,0],[0.855,0.145,0],[1,0.5,0],[0.855,0.855,0],[0.5,1,0],[0.145,0.855,0],[0,0.5,0]];shape=mxgraph.bpmn.event;html=1;verticalLabelPosition=bottom;labelBackgroundColor=#ffffff;verticalAlign=top;align=center;perimeter=ellipsePerimeter;outlineConnect=0;aspect=fixed;outline=end;symbol=terminate2;" vertex="1" parent="f10lREREaZ9edsUjd209-127">
          <mxGeometry x="230" y="20" width="40" height="40" as="geometry" />
        </mxCell>
        <mxCell id="f10lREREaZ9edsUjd209-162" style="edgeStyle=orthogonalEdgeStyle;rounded=0;orthogonalLoop=1;jettySize=auto;html=1;" edge="1" parent="vZ1dOxl-l5OCE9bv6NuZ-2" source="f10lREREaZ9edsUjd209-160" target="f10lREREaZ9edsUjd209-161">
          <mxGeometry relative="1" as="geometry" />
        </mxCell>
        <mxCell id="f10lREREaZ9edsUjd209-160" value="Recebe a mensagem de ficha deferida e quantas horas cadastradas" style="points=[[0.25,0,0],[0.5,0,0],[0.75,0,0],[1,0.25,0],[1,0.5,0],[1,0.75,0],[0.75,1,0],[0.5,1,0],[0.25,1,0],[0,0.75,0],[0,0.5,0],[0,0.25,0]];shape=mxgraph.bpmn.task2;whiteSpace=wrap;rectStyle=rounded;size=10;html=1;container=1;expand=0;collapsible=0;taskMarker=abstract;" vertex="1" parent="vZ1dOxl-l5OCE9bv6NuZ-2">
          <mxGeometry x="3300" y="135" width="120" height="80" as="geometry" />
        </mxCell>
        <mxCell id="f10lREREaZ9edsUjd209-161" value="" style="points=[[0.145,0.145,0],[0.5,0,0],[0.855,0.145,0],[1,0.5,0],[0.855,0.855,0],[0.5,1,0],[0.145,0.855,0],[0,0.5,0]];shape=mxgraph.bpmn.event;html=1;verticalLabelPosition=bottom;labelBackgroundColor=#ffffff;verticalAlign=top;align=center;perimeter=ellipsePerimeter;outlineConnect=0;aspect=fixed;outline=end;symbol=terminate2;" vertex="1" parent="vZ1dOxl-l5OCE9bv6NuZ-2">
          <mxGeometry x="3510" y="150" width="50" height="50" as="geometry" />
        </mxCell>
        <mxCell id="vZ1dOxl-l5OCE9bv6NuZ-3" value="Coordenador ou Estudante" style="swimlane;html=1;startSize=20;horizontal=0;" vertex="1" parent="vZ1dOxl-l5OCE9bv6NuZ-1">
          <mxGeometry x="20" y="500" width="3980" height="500" as="geometry" />
        </mxCell>
        <mxCell id="f10lREREaZ9edsUjd209-106" style="edgeStyle=orthogonalEdgeStyle;rounded=0;orthogonalLoop=1;jettySize=auto;html=1;" edge="1" parent="vZ1dOxl-l5OCE9bv6NuZ-3" source="f10lREREaZ9edsUjd209-83" target="f10lREREaZ9edsUjd209-105">
          <mxGeometry relative="1" as="geometry" />
        </mxCell>
        <mxCell id="f10lREREaZ9edsUjd209-83" value="Analisa a Ficha Complementar" style="points=[[0.25,0,0],[0.5,0,0],[0.75,0,0],[1,0.25,0],[1,0.5,0],[1,0.75,0],[0.75,1,0],[0.5,1,0],[0.25,1,0],[0,0.75,0],[0,0.5,0],[0,0.25,0]];shape=mxgraph.bpmn.task2;whiteSpace=wrap;rectStyle=rounded;size=10;html=1;container=0;expand=0;collapsible=0;taskMarker=abstract;" vertex="1" parent="vZ1dOxl-l5OCE9bv6NuZ-3">
          <mxGeometry x="1130" y="320" width="110" height="70" as="geometry" />
        </mxCell>
        <mxCell id="f10lREREaZ9edsUjd209-88" style="edgeStyle=orthogonalEdgeStyle;rounded=0;orthogonalLoop=1;jettySize=auto;html=1;" edge="1" parent="vZ1dOxl-l5OCE9bv6NuZ-3" source="f10lREREaZ9edsUjd209-85" target="f10lREREaZ9edsUjd209-87">
          <mxGeometry relative="1" as="geometry" />
        </mxCell>
        <mxCell id="f10lREREaZ9edsUjd209-85" value="Verifica se os dados inseridos estão conforme a Declaração de Presença" style="points=[[0.25,0,0],[0.5,0,0],[0.75,0,0],[1,0.25,0],[1,0.5,0],[1,0.75,0],[0.75,1,0],[0.5,1,0],[0.25,1,0],[0,0.75,0],[0,0.5,0],[0,0.25,0]];shape=mxgraph.bpmn.task2;whiteSpace=wrap;rectStyle=rounded;size=10;html=1;container=0;expand=0;collapsible=0;taskMarker=abstract;" vertex="1" parent="vZ1dOxl-l5OCE9bv6NuZ-3">
          <mxGeometry x="1614" y="315" width="120" height="80" as="geometry" />
        </mxCell>
        <mxCell id="f10lREREaZ9edsUjd209-92" style="edgeStyle=orthogonalEdgeStyle;rounded=0;orthogonalLoop=1;jettySize=auto;html=1;exitX=0.5;exitY=0;exitDx=0;exitDy=0;exitPerimeter=0;entryX=0.25;entryY=1;entryDx=0;entryDy=0;entryPerimeter=0;" edge="1" parent="vZ1dOxl-l5OCE9bv6NuZ-3" source="f10lREREaZ9edsUjd209-87" target="f10lREREaZ9edsUjd209-91">
          <mxGeometry relative="1" as="geometry">
            <mxPoint x="1401.916666666667" y="320.84062474479356" as="sourcePoint" />
            <mxPoint x="1470" y="245" as="targetPoint" />
            <Array as="points">
              <mxPoint x="1830" y="331" />
              <mxPoint x="1830" y="245" />
              <mxPoint x="2038" y="245" />
            </Array>
          </mxGeometry>
        </mxCell>
        <mxCell id="f10lREREaZ9edsUjd209-93" value="Não" style="edgeLabel;html=1;align=center;verticalAlign=middle;resizable=0;points=[];container=0;" connectable="0" vertex="1" parent="f10lREREaZ9edsUjd209-92">
          <mxGeometry x="-0.0897" y="2" relative="1" as="geometry">
            <mxPoint x="2" y="20" as="offset" />
          </mxGeometry>
        </mxCell>
        <mxCell id="f10lREREaZ9edsUjd209-113" style="edgeStyle=orthogonalEdgeStyle;rounded=0;orthogonalLoop=1;jettySize=auto;html=1;" edge="1" parent="vZ1dOxl-l5OCE9bv6NuZ-3" source="f10lREREaZ9edsUjd209-87" target="f10lREREaZ9edsUjd209-89">
          <mxGeometry relative="1" as="geometry" />
        </mxCell>
        <mxCell id="f10lREREaZ9edsUjd209-114" value="Sim" style="edgeLabel;html=1;align=center;verticalAlign=middle;resizable=0;points=[];container=0;" connectable="0" vertex="1" parent="f10lREREaZ9edsUjd209-113">
          <mxGeometry x="-0.1599" y="-1" relative="1" as="geometry">
            <mxPoint as="offset" />
          </mxGeometry>
        </mxCell>
        <mxCell id="f10lREREaZ9edsUjd209-87" value="Estão conforme?" style="points=[[0.25,0.25,0],[0.5,0,0],[0.75,0.25,0],[1,0.5,0],[0.75,0.75,0],[0.5,1,0],[0.25,0.75,0],[0,0.5,0]];shape=mxgraph.bpmn.gateway2;html=1;verticalLabelPosition=bottom;labelBackgroundColor=#ffffff;verticalAlign=top;align=center;perimeter=rhombusPerimeter;outlineConnect=0;outline=none;symbol=none;container=0;" vertex="1" parent="vZ1dOxl-l5OCE9bv6NuZ-3">
          <mxGeometry x="1810" y="330.80999999999995" width="43.88888888888889" height="48.38709677419356" as="geometry" />
        </mxCell>
        <mxCell id="f10lREREaZ9edsUjd209-130" style="edgeStyle=orthogonalEdgeStyle;rounded=0;orthogonalLoop=1;jettySize=auto;html=1;" edge="1" parent="vZ1dOxl-l5OCE9bv6NuZ-3" source="f10lREREaZ9edsUjd209-89" target="f10lREREaZ9edsUjd209-129">
          <mxGeometry relative="1" as="geometry" />
        </mxCell>
        <mxCell id="f10lREREaZ9edsUjd209-89" value="Verifica se os arquivos são verídicos e em PDF" style="points=[[0.25,0,0],[0.5,0,0],[0.75,0,0],[1,0.25,0],[1,0.5,0],[1,0.75,0],[0.75,1,0],[0.5,1,0],[0.25,1,0],[0,0.75,0],[0,0.5,0],[0,0.25,0]];shape=mxgraph.bpmn.task2;whiteSpace=wrap;rectStyle=rounded;size=10;html=1;container=0;expand=0;collapsible=0;taskMarker=abstract;" vertex="1" parent="vZ1dOxl-l5OCE9bv6NuZ-3">
          <mxGeometry x="1970" y="320" width="110" height="70" as="geometry" />
        </mxCell>
        <mxCell id="f10lREREaZ9edsUjd209-99" style="edgeStyle=orthogonalEdgeStyle;rounded=0;orthogonalLoop=1;jettySize=auto;html=1;dashed=1;dashPattern=1 4;" edge="1" parent="vZ1dOxl-l5OCE9bv6NuZ-3" source="f10lREREaZ9edsUjd209-91" target="f10lREREaZ9edsUjd209-98">
          <mxGeometry relative="1" as="geometry">
            <Array as="points">
              <mxPoint x="2065" y="60" />
            </Array>
          </mxGeometry>
        </mxCell>
        <mxCell id="f10lREREaZ9edsUjd209-91" value="Indeferimento" style="points=[[0.25,0,0],[0.5,0,0],[0.75,0,0],[1,0.25,0],[1,0.5,0],[1,0.75,0],[0.75,1,0],[0.5,1,0],[0.25,1,0],[0,0.75,0],[0,0.5,0],[0,0.25,0]];shape=mxgraph.bpmn.task2;whiteSpace=wrap;rectStyle=rounded;size=10;html=1;container=0;expand=0;collapsible=0;taskMarker=abstract;" vertex="1" parent="vZ1dOxl-l5OCE9bv6NuZ-3">
          <mxGeometry x="2010" y="140" width="110" height="70" as="geometry" />
        </mxCell>
        <mxCell id="f10lREREaZ9edsUjd209-96" style="edgeStyle=orthogonalEdgeStyle;rounded=0;orthogonalLoop=1;jettySize=auto;html=1;" edge="1" parent="vZ1dOxl-l5OCE9bv6NuZ-3" source="f10lREREaZ9edsUjd209-95" target="f10lREREaZ9edsUjd209-83">
          <mxGeometry relative="1" as="geometry" />
        </mxCell>
        <mxCell id="f10lREREaZ9edsUjd209-95" value="Até 5 dias antes&lt;br&gt;do Colegiado do Curso" style="points=[[0.145,0.145,0],[0.5,0,0],[0.855,0.145,0],[1,0.5,0],[0.855,0.855,0],[0.5,1,0],[0.145,0.855,0],[0,0.5,0]];shape=mxgraph.bpmn.event;html=1;verticalLabelPosition=bottom;labelBackgroundColor=#ffffff;verticalAlign=top;align=center;perimeter=ellipsePerimeter;outlineConnect=0;aspect=fixed;outline=catching;symbol=timer;container=0;" vertex="1" parent="vZ1dOxl-l5OCE9bv6NuZ-3">
          <mxGeometry x="1000" y="335" width="40" height="40" as="geometry" />
        </mxCell>
        <mxCell id="f10lREREaZ9edsUjd209-98" value="Ficha Indefirida" style="shape=mxgraph.bpmn.data2;labelPosition=center;verticalLabelPosition=bottom;align=center;verticalAlign=top;size=15;html=1;container=0;" vertex="1" parent="vZ1dOxl-l5OCE9bv6NuZ-3">
          <mxGeometry x="2220" y="30" width="40" height="50" as="geometry" />
        </mxCell>
        <mxCell id="f10lREREaZ9edsUjd209-110" style="edgeStyle=orthogonalEdgeStyle;rounded=0;orthogonalLoop=1;jettySize=auto;html=1;" edge="1" parent="vZ1dOxl-l5OCE9bv6NuZ-3" source="f10lREREaZ9edsUjd209-105" target="f10lREREaZ9edsUjd209-109">
          <mxGeometry relative="1" as="geometry" />
        </mxCell>
        <mxCell id="f10lREREaZ9edsUjd209-105" value="Verifica se a Atividade Complementar consta na Tabela" style="points=[[0.25,0,0],[0.5,0,0],[0.75,0,0],[1,0.25,0],[1,0.5,0],[1,0.75,0],[0.75,1,0],[0.5,1,0],[0.25,1,0],[0,0.75,0],[0,0.5,0],[0,0.25,0]];shape=mxgraph.bpmn.task2;whiteSpace=wrap;rectStyle=rounded;size=10;html=1;container=0;expand=0;collapsible=0;taskMarker=abstract;" vertex="1" parent="vZ1dOxl-l5OCE9bv6NuZ-3">
          <mxGeometry x="1330" y="320" width="110" height="70" as="geometry" />
        </mxCell>
        <mxCell id="f10lREREaZ9edsUjd209-111" style="edgeStyle=orthogonalEdgeStyle;rounded=0;orthogonalLoop=1;jettySize=auto;html=1;" edge="1" parent="vZ1dOxl-l5OCE9bv6NuZ-3" source="f10lREREaZ9edsUjd209-109" target="f10lREREaZ9edsUjd209-85">
          <mxGeometry relative="1" as="geometry" />
        </mxCell>
        <mxCell id="f10lREREaZ9edsUjd209-115" value="Sim" style="edgeLabel;html=1;align=center;verticalAlign=middle;resizable=0;points=[];container=0;" connectable="0" vertex="1" parent="f10lREREaZ9edsUjd209-111">
          <mxGeometry x="-0.0574" y="-1" relative="1" as="geometry">
            <mxPoint as="offset" />
          </mxGeometry>
        </mxCell>
        <mxCell id="f10lREREaZ9edsUjd209-109" value="Consta?" style="points=[[0.25,0.25,0],[0.5,0,0],[0.75,0.25,0],[1,0.5,0],[0.75,0.75,0],[0.5,1,0],[0.25,0.75,0],[0,0.5,0]];shape=mxgraph.bpmn.gateway2;html=1;verticalLabelPosition=bottom;labelBackgroundColor=#ffffff;verticalAlign=top;align=center;perimeter=rhombusPerimeter;outlineConnect=0;outline=none;symbol=none;container=0;" vertex="1" parent="vZ1dOxl-l5OCE9bv6NuZ-3">
          <mxGeometry x="1510" y="330.80999999999995" width="43.88888888888889" height="48.38709677419356" as="geometry" />
        </mxCell>
        <mxCell id="f10lREREaZ9edsUjd209-119" style="edgeStyle=orthogonalEdgeStyle;rounded=0;orthogonalLoop=1;jettySize=auto;html=1;entryX=0;entryY=0.5;entryDx=0;entryDy=0;entryPerimeter=0;" edge="1" parent="vZ1dOxl-l5OCE9bv6NuZ-3" source="f10lREREaZ9edsUjd209-109" target="f10lREREaZ9edsUjd209-91">
          <mxGeometry relative="1" as="geometry">
            <mxPoint x="1550" y="245" as="targetPoint" />
            <Array as="points">
              <mxPoint x="1532" y="175" />
            </Array>
          </mxGeometry>
        </mxCell>
        <mxCell id="f10lREREaZ9edsUjd209-122" value="Não" style="edgeLabel;html=1;align=center;verticalAlign=middle;resizable=0;points=[];container=0;" connectable="0" vertex="1" parent="f10lREREaZ9edsUjd209-119">
          <mxGeometry x="-0.6403" relative="1" as="geometry">
            <mxPoint as="offset" />
          </mxGeometry>
        </mxCell>
        <mxCell id="f10lREREaZ9edsUjd209-135" style="edgeStyle=orthogonalEdgeStyle;rounded=0;orthogonalLoop=1;jettySize=auto;html=1;" edge="1" parent="vZ1dOxl-l5OCE9bv6NuZ-3" source="f10lREREaZ9edsUjd209-129" target="f10lREREaZ9edsUjd209-134">
          <mxGeometry relative="1" as="geometry" />
        </mxCell>
        <mxCell id="f10lREREaZ9edsUjd209-136" value="Sim" style="edgeLabel;html=1;align=center;verticalAlign=middle;resizable=0;points=[];" connectable="0" vertex="1" parent="f10lREREaZ9edsUjd209-135">
          <mxGeometry x="0.0153" relative="1" as="geometry">
            <mxPoint as="offset" />
          </mxGeometry>
        </mxCell>
        <mxCell id="f10lREREaZ9edsUjd209-129" value="São Verídicos?" style="points=[[0.25,0.25,0],[0.5,0,0],[0.75,0.25,0],[1,0.5,0],[0.75,0.75,0],[0.5,1,0],[0.25,0.75,0],[0,0.5,0]];shape=mxgraph.bpmn.gateway2;html=1;verticalLabelPosition=bottom;labelBackgroundColor=#ffffff;verticalAlign=top;align=center;perimeter=rhombusPerimeter;outlineConnect=0;outline=none;symbol=none;container=0;" vertex="1" parent="vZ1dOxl-l5OCE9bv6NuZ-3">
          <mxGeometry x="2200" y="330.80999999999995" width="43.88888888888889" height="48.38709677419356" as="geometry" />
        </mxCell>
        <mxCell id="f10lREREaZ9edsUjd209-131" style="edgeStyle=orthogonalEdgeStyle;rounded=0;orthogonalLoop=1;jettySize=auto;html=1;entryX=0.5;entryY=1;entryDx=0;entryDy=0;entryPerimeter=0;" edge="1" parent="vZ1dOxl-l5OCE9bv6NuZ-3" source="f10lREREaZ9edsUjd209-129" target="f10lREREaZ9edsUjd209-91">
          <mxGeometry relative="1" as="geometry">
            <Array as="points">
              <mxPoint x="2222" y="270" />
              <mxPoint x="2065" y="270" />
            </Array>
          </mxGeometry>
        </mxCell>
        <mxCell id="f10lREREaZ9edsUjd209-132" value="Nãp" style="edgeLabel;html=1;align=center;verticalAlign=middle;resizable=0;points=[];" connectable="0" vertex="1" parent="f10lREREaZ9edsUjd209-131">
          <mxGeometry x="0.0211" y="-1" relative="1" as="geometry">
            <mxPoint as="offset" />
          </mxGeometry>
        </mxCell>
        <mxCell id="f10lREREaZ9edsUjd209-133" value="Não" style="edgeLabel;html=1;align=center;verticalAlign=middle;resizable=0;points=[];" connectable="0" vertex="1" parent="f10lREREaZ9edsUjd209-131">
          <mxGeometry x="0.0139" y="-1" relative="1" as="geometry">
            <mxPoint as="offset" />
          </mxGeometry>
        </mxCell>
        <mxCell id="f10lREREaZ9edsUjd209-138" style="edgeStyle=orthogonalEdgeStyle;rounded=0;orthogonalLoop=1;jettySize=auto;html=1;" edge="1" parent="vZ1dOxl-l5OCE9bv6NuZ-3" source="f10lREREaZ9edsUjd209-134" target="f10lREREaZ9edsUjd209-137">
          <mxGeometry relative="1" as="geometry" />
        </mxCell>
        <mxCell id="f10lREREaZ9edsUjd209-134" value="Verifica se a carga horária inserida está de acordo com a tabela" style="points=[[0.25,0,0],[0.5,0,0],[0.75,0,0],[1,0.25,0],[1,0.5,0],[1,0.75,0],[0.75,1,0],[0.5,1,0],[0.25,1,0],[0,0.75,0],[0,0.5,0],[0,0.25,0]];shape=mxgraph.bpmn.task2;whiteSpace=wrap;rectStyle=rounded;size=10;html=1;container=0;expand=0;collapsible=0;taskMarker=abstract;" vertex="1" parent="vZ1dOxl-l5OCE9bv6NuZ-3">
          <mxGeometry x="2360" y="320" width="110" height="70" as="geometry" />
        </mxCell>
        <mxCell id="f10lREREaZ9edsUjd209-144" style="edgeStyle=orthogonalEdgeStyle;rounded=0;orthogonalLoop=1;jettySize=auto;html=1;" edge="1" parent="vZ1dOxl-l5OCE9bv6NuZ-3" source="f10lREREaZ9edsUjd209-137" target="f10lREREaZ9edsUjd209-143">
          <mxGeometry relative="1" as="geometry" />
        </mxCell>
        <mxCell id="f10lREREaZ9edsUjd209-145" value="Sim" style="edgeLabel;html=1;align=center;verticalAlign=middle;resizable=0;points=[];" connectable="0" vertex="1" parent="f10lREREaZ9edsUjd209-144">
          <mxGeometry x="-0.0708" relative="1" as="geometry">
            <mxPoint as="offset" />
          </mxGeometry>
        </mxCell>
        <mxCell id="f10lREREaZ9edsUjd209-137" value="Está de acordo?" style="points=[[0.25,0.25,0],[0.5,0,0],[0.75,0.25,0],[1,0.5,0],[0.75,0.75,0],[0.5,1,0],[0.25,0.75,0],[0,0.5,0]];shape=mxgraph.bpmn.gateway2;html=1;verticalLabelPosition=bottom;labelBackgroundColor=#ffffff;verticalAlign=top;align=center;perimeter=rhombusPerimeter;outlineConnect=0;outline=none;symbol=none;container=0;" vertex="1" parent="vZ1dOxl-l5OCE9bv6NuZ-3">
          <mxGeometry x="2590" y="330.80999999999995" width="43.88888888888889" height="48.38709677419356" as="geometry" />
        </mxCell>
        <mxCell id="f10lREREaZ9edsUjd209-139" style="edgeStyle=orthogonalEdgeStyle;rounded=0;orthogonalLoop=1;jettySize=auto;html=1;entryX=0.75;entryY=1;entryDx=0;entryDy=0;entryPerimeter=0;" edge="1" parent="vZ1dOxl-l5OCE9bv6NuZ-3" source="f10lREREaZ9edsUjd209-137" target="f10lREREaZ9edsUjd209-91">
          <mxGeometry relative="1" as="geometry">
            <Array as="points">
              <mxPoint x="2612" y="240" />
              <mxPoint x="2093" y="240" />
            </Array>
          </mxGeometry>
        </mxCell>
        <mxCell id="f10lREREaZ9edsUjd209-140" value="Não" style="edgeLabel;html=1;align=center;verticalAlign=middle;resizable=0;points=[];" connectable="0" vertex="1" parent="f10lREREaZ9edsUjd209-139">
          <mxGeometry x="0.0696" relative="1" as="geometry">
            <mxPoint as="offset" />
          </mxGeometry>
        </mxCell>
        <mxCell id="f10lREREaZ9edsUjd209-149" style="edgeStyle=orthogonalEdgeStyle;rounded=0;orthogonalLoop=1;jettySize=auto;html=1;" edge="1" parent="vZ1dOxl-l5OCE9bv6NuZ-3" source="f10lREREaZ9edsUjd209-143" target="f10lREREaZ9edsUjd209-148">
          <mxGeometry relative="1" as="geometry" />
        </mxCell>
        <mxCell id="f10lREREaZ9edsUjd209-143" value="Verifica se o aluno já atingiu o limite máximo permitido na tabela" style="points=[[0.25,0,0],[0.5,0,0],[0.75,0,0],[1,0.25,0],[1,0.5,0],[1,0.75,0],[0.75,1,0],[0.5,1,0],[0.25,1,0],[0,0.75,0],[0,0.5,0],[0,0.25,0]];shape=mxgraph.bpmn.task2;whiteSpace=wrap;rectStyle=rounded;size=10;html=1;container=0;expand=0;collapsible=0;taskMarker=abstract;" vertex="1" parent="vZ1dOxl-l5OCE9bv6NuZ-3">
          <mxGeometry x="2750" y="320" width="110" height="70" as="geometry" />
        </mxCell>
        <mxCell id="f10lREREaZ9edsUjd209-146" style="edgeStyle=orthogonalEdgeStyle;rounded=0;orthogonalLoop=1;jettySize=auto;html=1;entryX=1;entryY=0.5;entryDx=0;entryDy=0;entryPerimeter=0;" edge="1" parent="vZ1dOxl-l5OCE9bv6NuZ-3" source="f10lREREaZ9edsUjd209-148" target="f10lREREaZ9edsUjd209-91">
          <mxGeometry relative="1" as="geometry">
            <mxPoint x="3000" y="260" as="sourcePoint" />
            <Array as="points">
              <mxPoint x="3002" y="175" />
            </Array>
          </mxGeometry>
        </mxCell>
        <mxCell id="f10lREREaZ9edsUjd209-147" value="Sim" style="edgeLabel;html=1;align=center;verticalAlign=middle;resizable=0;points=[];" connectable="0" vertex="1" parent="f10lREREaZ9edsUjd209-146">
          <mxGeometry x="0.1538" relative="1" as="geometry">
            <mxPoint as="offset" />
          </mxGeometry>
        </mxCell>
        <mxCell id="f10lREREaZ9edsUjd209-150" style="edgeStyle=orthogonalEdgeStyle;rounded=0;orthogonalLoop=1;jettySize=auto;html=1;entryX=0;entryY=0.5;entryDx=0;entryDy=0;entryPerimeter=0;" edge="1" parent="vZ1dOxl-l5OCE9bv6NuZ-3" source="f10lREREaZ9edsUjd209-148" target="f10lREREaZ9edsUjd209-152">
          <mxGeometry relative="1" as="geometry">
            <mxPoint x="3120" y="355.00354838709654" as="targetPoint" />
          </mxGeometry>
        </mxCell>
        <mxCell id="f10lREREaZ9edsUjd209-157" value="Não" style="edgeLabel;html=1;align=center;verticalAlign=middle;resizable=0;points=[];" connectable="0" vertex="1" parent="f10lREREaZ9edsUjd209-150">
          <mxGeometry x="-0.1167" relative="1" as="geometry">
            <mxPoint as="offset" />
          </mxGeometry>
        </mxCell>
        <mxCell id="f10lREREaZ9edsUjd209-148" value="Atingiu?" style="points=[[0.25,0.25,0],[0.5,0,0],[0.75,0.25,0],[1,0.5,0],[0.75,0.75,0],[0.5,1,0],[0.25,0.75,0],[0,0.5,0]];shape=mxgraph.bpmn.gateway2;html=1;verticalLabelPosition=bottom;labelBackgroundColor=#ffffff;verticalAlign=top;align=center;perimeter=rhombusPerimeter;outlineConnect=0;outline=none;symbol=none;container=0;" vertex="1" parent="vZ1dOxl-l5OCE9bv6NuZ-3">
          <mxGeometry x="2980" y="330.80999999999995" width="43.88888888888889" height="48.38709677419356" as="geometry" />
        </mxCell>
        <mxCell id="f10lREREaZ9edsUjd209-154" style="edgeStyle=orthogonalEdgeStyle;rounded=0;orthogonalLoop=1;jettySize=auto;html=1;dashed=1;dashPattern=1 4;" edge="1" parent="vZ1dOxl-l5OCE9bv6NuZ-3" source="f10lREREaZ9edsUjd209-152" target="f10lREREaZ9edsUjd209-158">
          <mxGeometry relative="1" as="geometry">
            <mxPoint x="3320" y="195" as="targetPoint" />
          </mxGeometry>
        </mxCell>
        <mxCell id="f10lREREaZ9edsUjd209-152" value="Contagem das horas cadastradas" style="points=[[0.25,0,0],[0.5,0,0],[0.75,0,0],[1,0.25,0],[1,0.5,0],[1,0.75,0],[0.75,1,0],[0.5,1,0],[0.25,1,0],[0,0.75,0],[0,0.5,0],[0,0.25,0]];shape=mxgraph.bpmn.task2;whiteSpace=wrap;rectStyle=rounded;size=10;html=1;container=0;expand=0;collapsible=0;taskMarker=abstract;" vertex="1" parent="vZ1dOxl-l5OCE9bv6NuZ-3">
          <mxGeometry x="3130" y="160" width="110" height="70" as="geometry" />
        </mxCell>
        <mxCell id="f10lREREaZ9edsUjd209-158" value="Ficha Deferida&lt;div&gt;&lt;br&gt;&lt;/div&gt;" style="shape=mxgraph.bpmn.data2;labelPosition=center;verticalLabelPosition=bottom;align=center;verticalAlign=top;size=15;html=1;" vertex="1" parent="vZ1dOxl-l5OCE9bv6NuZ-3">
          <mxGeometry x="3340" y="165" width="40" height="60" as="geometry" />
        </mxCell>
        <mxCell id="vZ1dOxl-l5OCE9bv6NuZ-4" value="Colegiado do Curso" style="swimlane;html=1;startSize=20;horizontal=0;" vertex="1" parent="vZ1dOxl-l5OCE9bv6NuZ-1">
          <mxGeometry x="20" y="1000" width="3980" height="500" as="geometry" />
        </mxCell>
        <mxCell id="f10lREREaZ9edsUjd209-82" style="edgeStyle=orthogonalEdgeStyle;rounded=0;orthogonalLoop=1;jettySize=auto;html=1;dashed=1;" edge="1" parent="vZ1dOxl-l5OCE9bv6NuZ-1" source="f10lREREaZ9edsUjd209-79" target="f10lREREaZ9edsUjd209-95">
          <mxGeometry relative="1" as="geometry">
            <mxPoint x="1670" y="670" as="targetPoint" />
            <Array as="points">
              <mxPoint x="1650" y="84" />
              <mxPoint x="1650" y="570" />
              <mxPoint x="1040" y="570" />
            </Array>
          </mxGeometry>
        </mxCell>
        <mxCell id="f10lREREaZ9edsUjd209-100" style="edgeStyle=orthogonalEdgeStyle;rounded=0;orthogonalLoop=1;jettySize=auto;html=1;dashed=1;dashPattern=1 4;" edge="1" parent="vZ1dOxl-l5OCE9bv6NuZ-1" source="f10lREREaZ9edsUjd209-98" target="f10lREREaZ9edsUjd209-101">
          <mxGeometry relative="1" as="geometry">
            <mxPoint x="2470" y="250" as="targetPoint" />
            <Array as="points">
              <mxPoint x="2260" y="400" />
              <mxPoint x="2410" y="400" />
            </Array>
          </mxGeometry>
        </mxCell>
        <mxCell id="f10lREREaZ9edsUjd209-159" style="edgeStyle=orthogonalEdgeStyle;rounded=0;orthogonalLoop=1;jettySize=auto;html=1;" edge="1" parent="vZ1dOxl-l5OCE9bv6NuZ-1" source="f10lREREaZ9edsUjd209-158" target="f10lREREaZ9edsUjd209-160">
          <mxGeometry relative="1" as="geometry">
            <mxPoint x="3380" y="220.00000000000023" as="targetPoint" />
          </mxGeometry>
        </mxCell>
      </root>
    </mxGraphModel>
  </diagram>
</mxfile>
